<svg width="16" height="16" viewBox="0 0 16 16" fill="none" xmlns="http://www.w3.org/2000/svg">
<g clip-path="url(#clip0_95_35)">
<path d="M6.52499 2.01331V3.06799L6.29062 3.18518C6.09531 3.26331 5.98788 3.30237 5.96835 3.30237C5.94882 3.30237 5.68515 3.04846 5.17734 2.54065L4.41562 1.83752L1.83749 4.41565L3.30234 5.93909L3.12656 6.52502H0.899994V10.275H3.12656L3.18515 10.5094C3.26328 10.7047 3.30234 10.8121 3.30234 10.8317C3.30234 10.8512 3.04843 11.1149 2.54062 11.6227L1.83749 12.3844L4.41562 14.9625L5.93906 13.4977L6.52499 13.6735V15.9H10.275V13.6735L10.5094 13.6149C10.7047 13.5367 10.8121 13.4977 10.8316 13.4977C10.8512 13.4977 11.1148 13.7516 11.6227 14.2594L12.3844 14.9625L14.9625 12.3844L13.4977 10.861L13.6734 10.275H15.9V6.52502H13.732L13.6148 6.29065C13.5367 6.09534 13.4977 5.98792 13.4977 5.96838C13.4977 5.94885 13.7516 5.68518 14.2594 5.17737L14.9625 4.41565L12.3844 1.83752L11.6227 2.54065C11.1148 3.04846 10.8609 3.30237 10.8609 3.30237L10.275 3.12659V0.900024H6.52499V2.01331ZM9.33749 2.77502V3.77112L9.86484 3.9469C10.1773 4.06409 10.4508 4.18127 10.6852 4.29846L10.9781 4.47424L12.3844 3.12659L13.6734 4.41565L12.3258 5.76331L12.6187 6.29065C12.775 6.64221 12.8727 6.93518 12.9117 7.16956L12.9703 7.46252H14.9625V9.33752H13.0289L12.8531 9.86487C12.7359 10.2164 12.6187 10.4899 12.5016 10.6852L12.3258 10.9781L13.6734 12.3844L12.3844 13.6735L11.0367 12.3258L10.5094 12.6188C10.1578 12.775 9.86484 12.8727 9.63046 12.9117L9.33749 12.9703V14.9625H7.46249V13.0289L6.99374 12.9117C6.72031 12.7946 6.44687 12.6578 6.17343 12.5016L5.82187 12.3258L4.41562 13.6735L3.12656 12.3844L4.47421 10.9781L4.18124 10.4508C4.02499 10.1383 3.92734 9.86487 3.88828 9.63049L3.82968 9.33752H1.83749V7.46252H3.77109L3.94687 6.93518C4.06406 6.62268 4.18124 6.34924 4.29843 6.11487L4.47421 5.8219L3.12656 4.41565L4.41562 3.12659L5.82187 4.47424L6.34921 4.18127C6.66171 4.02502 6.93515 3.92737 7.16953 3.88831L7.46249 3.82971V1.83752H9.33749V2.77502ZM7.93124 6.11487C7.61874 6.15393 7.30624 6.30042 6.99374 6.55432C6.68124 6.80823 6.44687 7.08167 6.29062 7.37463C6.13437 7.6676 6.05624 8.0094 6.05624 8.40002C6.05624 8.79065 6.13437 9.14221 6.29062 9.45471C6.36874 9.61096 6.52499 9.80627 6.75937 10.0406C6.99374 10.275 7.18906 10.4313 7.34531 10.5094C7.65781 10.6656 8.00937 10.7438 8.39999 10.7438C8.79062 10.7438 9.14218 10.6656 9.45468 10.5094C9.61093 10.4313 9.80624 10.275 10.0406 10.0406C10.275 9.80627 10.4312 9.61096 10.5094 9.45471C10.6656 9.14221 10.7437 8.79065 10.7437 8.40002C10.7437 8.0094 10.6656 7.65784 10.5094 7.34534C10.3922 7.15002 10.2262 6.95471 10.0113 6.7594C9.79648 6.56409 9.5914 6.4176 9.39609 6.31995C9.20078 6.22229 8.9664 6.15393 8.69296 6.11487C8.41953 6.07581 8.16562 6.07581 7.93124 6.11487ZM9.04453 7.16956C9.51328 7.40393 9.74765 7.81409 9.74765 8.40002C9.74765 8.79065 9.6207 9.12268 9.36679 9.39612C9.11288 9.66956 8.80038 9.80627 8.42929 9.80627C8.0582 9.80627 7.73593 9.67932 7.46249 9.42542C7.18906 9.17151 7.04257 8.87854 7.02304 8.54651C7.00351 8.21448 7.08163 7.91174 7.25742 7.63831C7.4332 7.36487 7.69687 7.16956 8.04843 7.05237C8.16562 7.01331 8.32187 7.00354 8.51718 7.02307C8.71249 7.0426 8.88828 7.09143 9.04453 7.16956Z" fill="#9A9A9A"/>
</g>
<defs>
<clipPath id="clip0_95_35">
<rect width="15" height="15.2" fill="white" transform="matrix(1 0 0 -1 0.899994 16)"/>
</clipPath>
</defs>
</svg>
