<svg width="27" height="28" viewBox="0 0 27 28" fill="none" xmlns="http://www.w3.org/2000/svg">
<path d="M1.1497 0.00710011C0.800447 0.128833 0.499224 0.365751 0.292038 0.681669C0.084851 0.997586 -0.0169108 1.37514 0.00229473 1.75666V19.2522C0.00229473 19.7162 0.180069 20.1612 0.49651 20.4893C0.812951 20.8174 1.24214 21.0018 1.68965 21.0018H10.1264V24.5009H6.75172C4.89563 24.5009 3.37701 26.0755 3.37701 28H23.6253C23.6253 26.0755 22.1067 24.5009 20.2506 24.5009H16.8759V21.0018H25.3126C25.7602 21.0018 26.1893 20.8174 26.5058 20.4893C26.8222 20.1612 27 19.7162 27 19.2522V1.75666C27 1.29265 26.8222 0.847639 26.5058 0.519533C26.1893 0.191428 25.7602 0.00710011 25.3126 0.00710011L1.68965 0.00710011C1.58862 -0.0023667 1.48696 -0.0023667 1.38593 0.00710011C1.31849 0.00289739 1.25088 0.00289739 1.18344 0.00710011L1.1497 0.00710011ZM3.37701 3.50621H23.6253V17.5027H3.37701V3.50621Z" fill="white"/>
</svg>
