<svg width="12" height="10" viewBox="0 0 12 10" fill="none" xmlns="http://www.w3.org/2000/svg">
<g clip-path="url(#clip0_1_378)">
<path d="M6.69727 2.2793C6.46836 2.25867 6.23577 2.24684 6 2.2439C4.96975 2.24771 3.90177 2.45654 2.89087 2.8567C2.14029 3.16605 1.40914 3.60277 0.77417 4.14148C0.46232 4.41648 0.06431 4.81467 0 5.2395C0.0076 5.60752 0.48153 6.06175 0.77417 6.33753C1.3696 6.85508 2.08171 7.27931 2.89087 7.62232C2.91837 7.63344 2.94597 7.64443 2.97363 7.65527L2.22291 8.74779L3.24296 9.25017L8.75712 1.2499L7.77526 0.749832L6.69727 2.2793ZM9.02563 2.82496L8.27636 3.9071C8.62106 4.28028 8.82568 4.74048 8.82568 5.2395C8.82568 6.48331 7.56046 7.4917 5.99926 7.4917C5.93177 7.4917 5.86636 7.48563 5.80004 7.48193L5.30419 8.19727C5.53287 8.21767 5.76409 8.23254 5.99999 8.23511C7.03122 8.23125 8.0986 8.02001 9.10839 7.62232C9.85897 7.31297 10.5908 6.87624 11.2258 6.33753C11.5377 6.06254 11.9357 5.66435 12 5.2395C11.9924 4.87149 11.5185 4.41726 11.2258 4.14147C10.6304 3.62392 9.91755 3.1997 9.10839 2.85668C9.08108 2.84565 9.05312 2.83572 9.02563 2.82496ZM5.99927 2.98732C6.06773 2.98732 6.13565 2.9896 6.20288 2.99342L5.62207 3.83142C4.80693 3.96914 4.19531 4.54709 4.19531 5.2389C4.19531 5.41268 4.23372 5.57906 4.30444 5.73327C4.30452 5.73345 4.30436 5.73372 4.30444 5.73389L3.72216 6.57434C3.37665 6.20082 3.17284 5.7391 3.17284 5.23949C3.17285 3.9957 4.43808 2.98731 5.99927 2.98732ZM7.68896 4.75427L6.38013 6.64392C7.19089 6.50362 7.7981 5.9283 7.7981 5.2389C7.7981 5.06828 7.75724 4.90607 7.68896 4.75427Z" fill="black"/>
</g>
<defs>
<clipPath id="clip0_1_378">
<rect width="12" height="10" fill="white"/>
</clipPath>
</defs>
</svg>
